<svg width="246" height="204" viewBox="0 0 246 204" fill="none" xmlns="http://www.w3.org/2000/svg">
<mask id="mask0" mask-type="alpha" maskUnits="userSpaceOnUse" x="0" y="0" width="246" height="204">
<path d="M48.5799 199.932C33.1048 188.172 20.6368 172.912 12.1981 155.403C3.75928 137.895 -0.410054 118.635 0.0318103 99.2037C0.473675 79.7724 5.51415 60.7223 14.7401 43.6152C23.966 26.508 37.1147 11.8308 53.1084 0.786552L123 102L48.5799 199.932Z" fill="#C4C4C4"/>
<path d="M197.42 4.06815C212.895 15.828 225.363 31.0877 233.802 48.5966C242.241 66.1054 246.41 85.3649 245.968 104.796C245.526 124.228 240.486 143.278 231.26 160.385C222.034 177.492 208.885 192.169 192.892 203.213L123 102L197.42 4.06815Z" fill="#C4C4C4"/>
</mask>
<g mask="url(#mask0)">
<circle cx="123" cy="102" r="115" stroke="#D81F26" stroke-width="16"/>
</g>
</svg>
